<?xml version="1.0" encoding="UTF-8" standalone="no"?>
<svg
   xmlns:dc="http://purl.org/dc/elements/1.1/"
   xmlns:cc="http://creativecommons.org/ns#"
   xmlns:rdf="http://www.w3.org/1999/02/22-rdf-syntax-ns#"
   xmlns:svg="http://www.w3.org/2000/svg"
   xmlns="http://www.w3.org/2000/svg"
   xmlns:sodipodi="http://sodipodi.sourceforge.net/DTD/sodipodi-0.dtd"
   xmlns:inkscape="http://www.inkscape.org/namespaces/inkscape"
   version="1.1"
   id="Layer_1"
   x="0px"
   y="0px"
   viewBox="0 0 148.41974 201.49194"
   xml:space="preserve"
   sodipodi:docname="gopher.svg"
   width="148.41974"
   height="201.49193"
   inkscape:version="1.0 (4035a4f, 2020-05-01)"><metadata
   id="metadata879"><rdf:RDF><cc:Work
       rdf:about=""><dc:format>image/svg+xml</dc:format><dc:type
         rdf:resource="http://purl.org/dc/dcmitype/StillImage" /><dc:title></dc:title></cc:Work></rdf:RDF></metadata><defs
   id="defs877">
	
	
	
	
</defs><sodipodi:namedview
   inkscape:document-rotation="0"
   pagecolor="#ffffff"
   bordercolor="#666666"
   borderopacity="1"
   objecttolerance="10"
   gridtolerance="10"
   guidetolerance="10"
   inkscape:pageopacity="0"
   inkscape:pageshadow="2"
   inkscape:window-width="1440"
   inkscape:window-height="872"
   id="namedview875"
   showgrid="false"
   inkscape:zoom="2.0148432"
   inkscape:cx="28.338911"
   inkscape:cy="27.174885"
   inkscape:window-x="0"
   inkscape:window-y="28"
   inkscape:window-maximized="0"
   inkscape:current-layer="Layer_1"
   inkscape:snap-global="false" />
<style
   type="text/css"
   id="style833">
	.st0{fill:#00ACD7;}
</style>

<g
   fill-rule="evenodd"
   fill="none"
   stroke-width="1"
   stroke="none"
   id="Page-1"
   transform="matrix(0.58890374,0,0,0.58890374,-0.29234208,-0.29445187)"><g
     transform="translate(-173,-107)"
     id="Artboard-3"><g
       transform="translate(173,107)"
       id="Group"><path
         fill="#6ad7e5"
         id="Shape"
         d="M 27.796237,66.450609 C -10.693394,55.617715 17.926953,6.6103059 48.83509,26.767692 Z" /><path
         fill="#6ad7e5"
         id="path950"
         d="M 198.94812,22.82564 C 229.41389,1.4083776 256.9446,49.729627 221.53749,61.887564 Z" /><path
         fill="#000000"
         id="path952"
         d="M 29.706275,52.846065 C 24.628327,50.157647 20.90301,46.506432 24.009143,40.628073 26.884838,35.186071 32.227056,35.777037 37.305642,38.465455 Z" /><path
         fill="#000000"
         id="path954"
         d="m 213.80825,47.403605 c 5.07794,-2.688418 8.80326,-6.339633 5.69713,-12.217992 -2.8757,-5.442002 -8.21792,-4.851036 -13.2965,-2.162618 z" /><path
         fill="#000000"
         id="path956"
         d="m 233.64397,30.512207 c 6.75346,11.774495 2.52505,24.765278 -12.59363,29.956664 l 1.78565,0.667772 -22.58937,-39.061924 -0.43584,1.97804 c 13.04459,-9.170272 27.04119,-5.382235 33.83319,6.459448 z m -36.68165,-8.124124 0.68729,1.188478 22.58937,39.061924 0.61803,1.068705 1.16762,-0.400933 C 238.9893,57.481006 243.90631,42.374641 236.2463,29.019598 228.60585,15.698657 212.6288,11.374634 198.08546,21.598521 Z" /><path
         fill="#000000"
         id="path958"
         d="m 13.600306,35.720618 c 6.7234,-12.007857 21.161127,-16.34055 34.415385,-7.696508 L 47.509826,26.065071 26.470973,65.747989 28.202622,65.006708 C 11.774369,60.382982 6.8759745,47.730138 13.600306,35.720618 Z M 28.55468,68.222351 29.121501,67.15323 50.160354,27.470313 50.802161,26.259753 49.654489,25.511274 C 34.884734,15.87887 18.522457,20.789111 10.982695,34.254973 3.3268426,47.928171 9.0592714,62.735375 27.389851,67.894511 Z" /><path
         fill="#f6d2a2"
         id="path960"
         d="m 4.3612324,185.70643 c 0.4876872,10.06304 10.5318746,5.40686 15.0812816,2.261 4.31833,-2.98677 5.580955,-0.50408 5.960125,-6.39841 0.248312,-3.87418 0.694508,-7.74837 0.474921,-11.63788 -6.530158,-0.59225 -13.632902,0.96407 -18.9866096,4.85678 -2.7576033,2.00546 -7.9281094,8.40642 -2.529718,10.91851" /><path
         fill="#c6b198"
         stroke-width="3"
         stroke="#000000"
         id="path962"
         d="m 4.722785,185.66932 c 1.4617851,-0.54433 3.011022,-0.93086 4.0029931,-2.25398" /><path
         fill="#000000"
         id="path964"
         d="m 10.521075,193.2835 c 3.035034,-0.28933 6.689562,-1.94906 9.774569,-4.0823 0.684385,-0.47336 1.311172,-0.81587 1.954346,-1.09085 0.247685,-0.10589 0.490042,-0.19899 0.785808,-0.30436 0.0434,-0.0155 0.590722,-0.20638 0.746037,-0.26359 2.193751,-0.80808 2.873971,-2.08808 3.11771,-5.87708 0.04692,-0.73206 0.0896,-1.31784 0.190262,-2.6461 0.344436,-4.54515 0.431403,-6.58593 0.285368,-9.17263 l -0.07296,-1.2924 -1.289167,-0.11692 c -7.16022,-0.64939 -14.540561,1.1648 -20.0042186,5.13745 -1.8254573,1.32756 -3.8357247,3.67752 -4.8118705,5.87308 -1.41850737,3.19053 -0.73537708,6.09842 2.5314314,7.61859 l 1.2656922,-2.71993 c -1.6078263,-0.74818 -1.8676176,-1.85404 -1.0558466,-3.67989 0.7495593,-1.68592 2.4151972,-3.63302 3.8349539,-4.66553 4.8496492,-3.5262 11.5052712,-5.16224 17.9688892,-4.57603 l -1.362131,-1.40932 c 0.136108,2.41085 0.05291,4.36322 -0.28156,8.77684 -0.101537,1.33987 -0.144782,1.93335 -0.192673,2.68055 -0.175491,2.72805 -0.283342,2.931 -1.160821,3.25422 -0.126317,0.0465 -0.650908,0.22953 -0.715865,0.25267 -0.349527,0.12452 -0.647019,0.23879 -0.958374,0.37191 -0.824313,0.35242 -1.627811,0.7915 -2.481404,1.38189 -2.701189,1.86783 -5.924632,3.33179 -8.352866,3.56327 -2.7684164,0.26391 -4.1976604,-0.96461 -4.376907,-4.66322 l -2.9964832,0.14522 c 0.2623479,5.41334 3.190602,7.93034 7.6580842,7.50446 z" /><path
         fill="#c6b198"
         stroke-width="3"
         stroke="#000000"
         id="path966"
         d="m 4.722785,185.66932 c 1.4617851,-0.54433 3.011022,-0.93086 4.0029931,-2.25398" /><path
         fill="#f6d2a2"
         id="path968"
         d="m 205.87724,309.499 c 7.73852,4.79226 21.88336,19.28275 10.27462,26.30918 -11.15425,10.22149 -17.39716,-11.21941 -27.18729,-14.19022 4.2162,-5.73078 9.56033,-10.9562 16.91267,-12.11896 z" /><path
         fill="#000000"
         id="path970"
         d="m 216.98269,322.58612 c 3.13734,5.24181 2.83009,9.25285 -1.60754,11.93882 l -0.12714,0.077 -0.10956,0.1004 c -4.64387,4.25553 -7.81448,2.87079 -13.9678,-4.2779 -0.19115,-0.22206 -0.39105,-0.45563 -0.62999,-0.73585 -0.14803,-0.17359 -0.31651,-0.37151 -0.63471,-0.74535 -4.69627,-5.51494 -7.09862,-7.72669 -10.50582,-8.7606 l 0.77268,2.32428 c 4.91928,-6.68643 9.90554,-10.57214 15.93874,-11.52629 l -1.02405,-0.20631 c 4.30528,2.66614 9.27478,7.4337 11.89519,11.81185 z m -10.78942,-14.65575 -0.55035,0.087 c -6.96359,1.10129 -12.5443,5.45025 -17.88658,12.71164 l -1.2569,1.70841 2.02957,0.61587 c 2.63345,0.79912 4.80053,2.79426 9.09287,7.83487 0.31758,0.3731 0.48704,0.57217 0.63601,0.74687 0.24172,0.28348 0.44449,0.5204 0.63906,0.74644 3.30517,3.83982 5.44451,5.8195 7.9746,6.9245 3.41392,1.491 6.84465,0.76872 10.29372,-2.39193 l -0.2367,0.17735 c 6.07418,-3.67652 6.52321,-9.53841 2.62828,-16.046 -2.88307,-4.81699 -8.19863,-9.91654 -12.88988,-12.8217 z" /><path
         fill="#000000"
         id="path972"
         d="m 215.92545,332.12096 c -0.0323,-0.0868 -0.0323,-0.0868 -0.0646,-0.17374 -1.4108,-3.79381 -2.25775,-5.45668 -4.07471,-7.20247 l -2.07853,2.16326 c 1.38388,1.32968 2.08486,2.70596 3.34137,6.08486 0.0324,0.087 0.0324,0.087 0.0648,0.17423 0.62477,1.67917 0.97395,2.53948 1.46456,3.51588 l 2.68064,-1.34691 c -0.42647,-0.84875 -0.74568,-1.63521 -1.33351,-3.21511 z" /><path
         fill="#f6d2a2"
         id="path974"
         d="m 66.934623,325.78407 c -9.082856,1.40682 -14.195274,9.60815 -21.767193,13.77303 -7.135298,4.25815 -9.864815,-1.36338 -10.507617,-2.50442 -1.118362,-0.51047 -1.024526,0.47533 -2.750582,-1.26435 -6.614418,-10.44829 6.892093,-18.08549 13.925258,-23.27577 9.795875,-1.98181 15.934734,6.51788 21.100134,13.27151 z" /><path
         fill="#000000"
         id="path976"
         d="m 52.162043,332.472 c -0.09786,0.0837 -0.09786,0.0837 -0.195615,0.16722 -3.590296,3.06917 -5.284644,4.37298 -7.521918,5.60358 -3.547861,2.11619 -5.717651,1.70007 -7.363042,-0.22448 -0.248591,-0.29077 -0.472079,-0.6045 -0.682932,-0.94639 -0.08152,-0.13219 -0.158029,-0.26331 -0.240663,-0.41073 -0.03749,-0.0669 -0.164065,-0.29664 -0.191169,-0.34475 l -0.239724,-0.42554 -0.444318,-0.2028 c -0.569864,-0.26011 -0.978438,-0.31887 -1.536611,-0.30157 -0.12337,-0.0507 -0.380916,-0.26052 -0.771999,-0.65469 l 0.202563,0.25415 c -3.666179,-5.79118 -0.833547,-10.72957 7.650141,-17.03955 1.18793,-0.88356 5.2122,-3.72055 5.898416,-4.22696 l -0.593242,0.26328 c 6.396039,-1.29399 11.135854,1.85755 17.342691,9.76318 0.351115,0.44722 0.712423,0.91433 1.147066,1.48158 0.235383,0.3072 1.025013,1.34169 1.121472,1.46781 l 0.96187,-2.3936 c -5.053301,0.7827 -8.286417,2.82231 -14.542986,8.17026 z m 17.498967,-5.59233 -1.534924,-2.00687 c -0.0949,-0.12408 -0.88565,-1.16004 -1.123073,-1.4699 -0.441242,-0.57587 -0.809377,-1.05181 -1.168751,-1.50954 -6.84345,-8.71649 -12.443398,-12.43993 -20.297213,-10.85102 l -0.325792,0.0659 -0.26745,0.19737 c -0.649648,0.47942 -4.680066,3.32075 -5.907452,4.23365 -4.210502,3.13168 -7.016827,5.83462 -8.736268,8.83227 -2.267963,3.95395 -2.287982,8.06511 0.34176,12.21911 l 0.08743,0.13812 0.115129,0.11603 c 1.148705,1.15777 1.90301,1.56041 2.887948,1.54309 0.243142,-0.007 0.216505,-0.0109 0.304606,0.0294 l 0.622849,-1.36457 -1.306891,0.73623 c 0.01824,0.0324 0.142754,0.2584 0.188048,0.3392 0.101646,0.18133 0.198544,0.3474 0.304116,0.51858 0.287273,0.46581 0.598864,0.90322 0.956141,1.32112 2.574021,3.01073 6.347434,3.73438 11.134888,0.87736 2.430361,-1.33574 4.234598,-2.72411 7.979673,-5.9256 0.09781,-0.0836 0.09781,-0.0836 0.195514,-0.16713 5.846166,-4.99715 8.730128,-6.8165 13.052914,-7.48605 z" /><path
         stroke-width="3"
         stroke="#000000"
         id="path978"
         d="m 34.673421,337.65629 c 0.345977,-3.98215 3.500624,-6.64885 5.003262,-10.01576" /><path
         fill="#f6d2a2"
         id="path980"
         d="m 248.65888,184.79935 c -0.48768,10.06304 -10.53187,5.40686 -15.08128,2.26101 -4.31833,-2.98678 -5.58095,-0.50408 -5.96012,-6.39841 -0.24832,-3.87419 -0.69451,-7.74837 -0.47492,-11.63789 6.53015,-0.59224 13.6329,0.96407 18.9866,4.85679 2.75697,2.00545 7.92811,8.40641 2.52972,10.9185" /><path
         fill="#000000"
         id="path982"
         d="m 242.78373,189.38996 c -2.42823,-0.23148 -5.65167,-1.69543 -8.353,-3.56337 -0.85345,-0.59029 -1.65695,-1.02937 -2.48127,-1.38179 -0.31135,-0.13311 -0.60884,-0.24739 -0.95837,-0.37191 -0.065,-0.0231 -0.58955,-0.20613 -0.71586,-0.25266 -0.87748,-0.32322 -0.98534,-0.52617 -1.16085,-3.25458 -0.0479,-0.74685 -0.0911,-1.34033 -0.19265,-2.6802 -0.33447,-4.41362 -0.41767,-6.36599 -0.28156,-8.77684 l -1.36213,1.40932 c 6.46362,-0.58621 13.11924,1.04983 17.969,4.57612 1.41944,1.03252 3.08503,2.97963 3.83462,4.66549 0.81186,1.8259 0.55214,2.93169 -1.05562,3.67985 l 1.26569,2.71993 c 3.26683,-1.52019 3.94981,-4.42807 2.53117,-7.61864 -0.97615,-2.19538 -2.98625,-4.54524 -4.81137,-5.87286 -5.4639,-3.97283 -12.84424,-5.78702 -20.00446,-5.13763 l -1.28917,0.11692 -0.073,1.2924 c -0.14603,2.5867 -0.0591,4.62748 0.28537,9.17263 0.10066,1.32826 0.14334,1.91404 0.19024,2.64575 0.24376,3.78935 0.92398,5.06936 3.11773,5.87743 0.15531,0.0572 0.70264,0.24813 0.74604,0.26359 0.29576,0.10537 0.53812,0.19847 0.78581,0.30436 0.64317,0.27498 1.26996,0.61749 1.9542,1.09075 3.08515,2.13334 6.73968,3.79308 9.77471,4.0824 4.46748,0.42588 7.39574,-2.09112 7.65808,-7.50446 l -2.99648,-0.14522 c -0.17925,3.69861 -1.60849,4.92713 -4.37691,4.66322 z" /><path
         fill="#c6b198"
         stroke-width="3"
         stroke="#000000"
         id="path984"
         d="m 248.33086,184.76224 c -1.46178,-0.54433 -3.01102,-0.93085 -4.00299,-2.25398" /><path
         fill="#6ad7e5"
         id="path986"
         d="m 122.79138,2 c 38.53303,0 74.65508,5.5154738 93.4853,42.568111 16.90181,41.531205 10.89126,86.315599 13.46885,130.208119 2.21374,37.68896 7.12189,81.23073 -10.3474,116.15653 -18.37763,36.74469 -64.29939,45.98805 -102.13345,44.63426 C 87.547037,334.50264 51.647766,324.79929 34.875537,297.62441 15.198251,265.74417 24.514098,218.34036 25.943328,182.86704 27.636191,140.84709 14.571407,98.69936 28.363891,57.581512 42.67215,14.92779 81.260723,5.2883289 122.79138,2 Z" /><path
         fill="#ffffff"
         id="path988"
         d="m 130.03852,53.836422 c 6.91826,40.251523 72.65646,29.609016 63.21422,-10.986865 -8.46686,-36.4035326 -65.5135,-26.327076 -63.21422,10.986865" /><path
         fill="#000000"
         id="path990"
         d="m 168.02135,80.094784 c 19.00694,-3.188062 31.168,-18.139812 26.64764,-37.574633 -8.86989,-38.1363601 -68.49108,-27.693892 -66.08177,11.4057 l 2.90259,-0.178858 c -2.19442,-35.612296 52.30183,-45.1571459 60.34668,-10.56804 4.10904,17.666376 -6.83234,31.118557 -24.2962,34.047795 -17.44447,2.925986 -33.04933,-6.069251 -36.06874,-23.636631 l -2.86607,0.492609 c 3.3135,19.278488 20.49919,29.184978 39.41587,26.012058 z" /><path
         fill="#ffffff"
         id="path992"
         d="M 50.839962,60.567231 C 59.806641,95.609944 115.86323,86.638115 113.75034,51.486792 111.21871,9.3876207 42.267135,17.511013 50.839962,60.567231" /><path
         fill="#000000"
         id="path994"
         d="M 115.1585,51.40215 C 113.94886,31.286773 97.366407,20.161467 77.948473,22.694896 58.405441,25.244646 45.382574,40.382198 49.45642,60.842705 l 2.767084,-0.550948 C 48.49268,41.554048 60.287063,27.844465 78.313483,25.492585 96.223185,23.155933 111.23924,33.230329 112.34218,51.571472 114.366,85.240918 60.693545,93.385275 52.20663,60.21753 l -2.733337,0.699402 C 58.805027,97.38632 117.38819,88.496802 115.1585,51.40215 Z" /><path
         fill="#ffffff"
         id="path996"
         d="m 137.82311,102.89689 c 0.0294,5.23309 1.18794,11.10825 0.19916,16.67548 -1.33475,2.52486 -3.9532,2.79191 -6.21035,3.81221 -3.12145,-0.49002 -5.74628,-2.54148 -6.99805,-5.46373 -0.80111,-6.35432 0.29874,-12.50676 0.50109,-18.863644 z" /><path
         fill="#000000"
         id="path998"
         d="m 136.62594,108.6098 c 0.2011,2.67299 0.27674,3.97109 0.29267,5.49977 0.0201,1.93339 -0.0934,3.62522 -0.37322,5.20049 l 0.15078,-0.43873 c -0.60583,1.146 -1.39277,1.62406 -3.65163,2.42881 -0.10694,0.0381 -0.10694,0.0381 -0.21513,0.0767 -0.7249,0.25896 -1.16438,0.42802 -1.63534,0.64091 l 0.85048,-0.11501 c -2.60906,-0.40959 -4.80238,-2.1225 -5.85186,-4.57251 l 0.1094,0.40301 c -0.33968,-2.69429 -0.3525,-5.43894 -0.12075,-9.0892 0.0596,-0.93821 0.11417,-1.67004 0.24974,-3.40337 0.23593,-3.01657 0.32799,-4.40372 0.38312,-6.135731 l -1.93943,1.386231 12.50816,3.83969 -1.05979,-1.42554 c 0.009,1.54346 0.0785,2.72352 0.3028,5.70449 z m 2.69097,-6.82344 -1.05361,-0.32343 -12.50815,-3.839682 -1.87696,-0.576179 -0.0625,1.962413 c -0.0532,1.670748 -0.14315,3.026348 -0.37551,5.997258 -0.13672,1.74812 -0.19203,2.48937 -0.25284,3.44721 -0.24269,3.82261 -0.22907,6.74081 0.13828,9.65453 l 0.0264,0.20919 0.083,0.19382 c 1.45506,3.39681 4.51287,5.78487 8.14425,6.35494 l 0.44241,0.0695 0.40807,-0.18446 c 0.37723,-0.17052 0.75578,-0.31613 1.40887,-0.54944 0.10578,-0.0377 0.10578,-0.0377 0.2127,-0.0758 2.92544,-1.04223 4.23032,-1.83492 5.29704,-3.85275 l 0.10972,-0.20756 0.0411,-0.23117 c 0.31551,-1.77642 0.44124,-3.6492 0.41928,-5.75637 -0.0168,-1.61378 -0.0951,-2.95743 -0.30096,-5.69357 -0.21881,-2.90839 -0.28626,-4.04766 -0.29439,-5.49626 z" /><ellipse
         ry="10.261733"
         rx="9.4658566"
         cy="55.112835"
         cx="66.237534"
         fill="#000000"
         id="Oval" /><ellipse
         ry="2.607919"
         rx="2.231616"
         cy="57.428783"
         cx="70.543098"
         fill="#ffffff"
         id="ellipse1001" /><ellipse
         ry="10.261733"
         rx="9.3081875"
         cy="52.391605"
         cx="145.35597"
         fill="#000000"
         id="ellipse1003" /><ellipse
         ry="2.607919"
         rx="2.1945927"
         cy="54.707554"
         cx="149.59004"
         fill="#ffffff"
         id="ellipse1005" /><path
         fill="#ffffff"
         id="path1007"
         d="m 110.35446,101.73937 c -4.13003,10.01768 2.3031,30.04985 13.50906,15.27441 -0.80111,-6.35433 0.29874,-12.50677 0.50109,-18.863651 z" /><path
         fill="#000000"
         id="path1009"
         d="m 110.05193,119.4117 c 3.45207,6.11168 9.33158,5.9914 15.00674,-1.4915 l 0.36957,-0.48728 -0.0765,-0.60677 c -0.33968,-2.69428 -0.35249,-5.43893 -0.12075,-9.0892 0.0596,-0.93821 0.11417,-1.67004 0.24974,-3.40336 0.23593,-3.01658 0.32799,-4.403723 0.38312,-6.135737 l 0.0636,-1.996536 -1.93506,0.495739 -14.01016,3.589244 -0.72805,0.18652 -0.28645,0.69482 c -2.20205,5.34124 -1.68527,13.34078 1.08424,18.24406 z m 0.67479,-16.21925 14.01015,-3.589248 -1.8715,-1.500797 c -0.0532,1.670747 -0.14315,3.026345 -0.37551,5.997265 -0.13672,1.74811 -0.19203,2.48936 -0.25284,3.4472 -0.24269,3.82261 -0.22906,6.74081 0.13828,9.65453 l 0.29306,-1.09405 c -4.44888,5.86602 -7.68663,5.93225 -10.0043,1.82894 -2.31818,-4.1042 -2.7726,-11.13844 -0.92284,-15.62519 z" /><path
         fill="#f6d2a2"
         id="path1011"
         d="m 111.7854,82.867684 c -7.69767,0.656771 -13.989732,9.81707 -9.98738,17.063916 5.30009,9.59857 17.13034,-0.849075 24.49863,0.12969 8.48026,0.17378 15.42853,8.97439 22.23956,1.59082 7.57511,-8.212196 -3.26125,-16.210368 -11.73067,-19.786194 z" /><path
         fill="#231f20"
         id="path1013"
         d="m 100.48497,100.65679 c 1.72007,3.11508 4.21878,4.66426 7.39137,4.84453 2.35243,0.13366 4.7195,-0.40054 8.45858,-1.66809 0.34174,-0.11585 0.66617,-0.22743 1.18853,-0.4082 4.81007,-1.66458 6.68456,-2.12801 8.57568,-1.8768 l 0.16679,0.0127 c 2.23379,0.0458 4.17894,0.63578 7.8005,2.15123 4.14311,1.73368 5.48064,2.19554 7.60004,2.35614 2.98026,0.22582 5.59641,-0.82359 7.97229,-3.39919 4.02,-4.358085 3.81682,-9.157664 0.21315,-13.594478 -2.7378,-3.370761 -7.39818,-6.452291 -12.46292,-8.590649 l -0.30867,-0.13032 -0.33478,0.0134 -25.02014,1.001768 c -9.11866,0.77648 -15.651761,11.300526 -11.24042,19.287909 z m 36.38058,-17.292075 -0.64345,-0.116916 c 4.65078,1.963578 8.91973,4.786288 11.30114,7.718268 2.71724,3.345448 2.85002,6.482161 -0.0896,9.669013 -3.1123,3.37393 -5.27853,3.20979 -12.20916,0.30965 -3.95537,-1.655129 -6.1713,-2.327265 -8.8971,-2.383122 l 0.16678,0.01275 c -2.55394,-0.339254 -4.63043,0.174109 -9.95181,2.015632 -0.51681,0.17885 -0.83635,0.28874 -1.1706,0.40206 -6.96082,2.35972 -10.06924,2.18311 -12.26061,-1.785516 -3.308341,-5.990231 1.81817,-14.248431 8.80177,-14.844277 z" /><path
         fill="#000000"
         id="path1015"
         d="m 110.81641,82.466465 c -0.57004,-13.346897 24.85545,-15.015658 27.85817,-3.843517 2.99507,11.145946 -26.6064,13.734699 -27.85817,3.843517 -0.999,-7.898506 0,0 0,0 z" /><path
         fill="#000000"
         id="path1017"
         d="m 176.40084,10.795654 c 17.08921,6.339996 29.84806,17.351436 38.53862,34.452038 5.59827,13.770021 8.96217,28.672935 10.70932,45.875949 1.32802,13.076149 1.63679,23.671599 1.76526,47.645809 0.0204,3.80419 0.0304,5.49082 0.0467,7.60318 0.0911,11.80568 0.29917,20.1784 0.78736,28.49153 0.19203,3.2694 0.27506,4.57665 0.77649,12.34453 1.07479,16.65005 1.49825,25.27841 1.57057,35.23083 0.20247,27.86294 -3.33855,49.4289 -12.53858,67.82222 -8.40843,16.81201 -23.15576,28.66527 -42.94197,35.86551 -16.90238,6.15081 -36.99431,8.68507 -57.7963,7.94072 -35.74874,-1.28039 -66.66287,-13.73244 -81.166328,-37.23138 -9.670977,-15.66847 -12.907248,-35.64486 -12.014226,-63.16883 0.24479,-7.54474 0.691858,-14.30514 1.662649,-26.55639 1.101786,-13.90438 1.390164,-17.94092 1.641697,-24.18395 0.18035,-4.4766 0.20137,-9.10876 0.07789,-14.01513 -0.216428,-8.59934 -0.696464,-15.50698 -1.99278,-30.87178 C 23.814988,117.74609 23.29128,108.82801 23.50306,97.697576 23.781648,83.055891 25.705296,70.223879 29.78601,58.058546 36.390524,38.370138 48.482041,24.979542 66.029611,16.375547 80.717038,9.1739475 98.59521,5.4205073 122.90977,3.4953201 145.50332,3.5 162.13574,5.5033816 176.40084,10.795654 Z M 64.708861,13.681921 c -18.253277,8.950021 -30.902193,22.9579 -37.767088,43.422539 -4.185962,12.479095 -6.154129,25.608079 -6.438164,40.536045 -0.214408,11.268515 0.313283,20.254405 2.034229,40.652215 1.291362,15.30608 1.76866,22.17431 1.98311,30.69505 0.121905,4.84367 0.10118,9.41093 -0.0764,13.81888 -0.249325,6.18824 -0.536496,10.20787 -1.634755,24.06775 -0.974303,12.29556 -1.423707,19.0913 -1.670446,26.69608 -0.910433,28.06064 2.410682,48.56073 12.459757,64.84178 15.133844,24.52032 46.963626,37.34118 83.611886,38.65379 21.16208,0.75723 41.63051,-1.82451 58.92952,-8.11966 20.4633,-7.44664 35.82028,-19.7899 44.59919,-37.34266 9.44835,-18.88979 13.06099,-40.89193 12.85539,-69.18601 -0.0729,-10.02695 -0.49837,-18.69707 -1.57672,-35.40228 -0.50096,-7.76063 -0.58388,-9.06616 -0.77542,-12.32717 -0.48459,-8.25187 -0.69154,-16.57977 -0.78228,-28.33879 -0.0163,-2.10922 -0.0263,-3.79428 -0.0467,-7.5961 -0.12898,-24.07043 -0.43959,-34.72921 -1.78057,-47.932862 C 226.85923,73.351224 223.43357,58.174715 217.66603,44.002691 208.57367,26.099865 195.22525,14.579598 177.44433,7.9829794 162.77681,2.541414 145.82864,0.5 122.79138,0.5 98.014506,2.4570973 79.804361,6.2802338 64.708861,13.681921 Z" /></g></g></g></svg>
