<?xml version="1.0" encoding="UTF-8" standalone="no"?>
<svg
   xmlns:dc="http://purl.org/dc/elements/1.1/"
   xmlns:cc="http://creativecommons.org/ns#"
   xmlns:rdf="http://www.w3.org/1999/02/22-rdf-syntax-ns#"
   xmlns:svg="http://www.w3.org/2000/svg"
   xmlns="http://www.w3.org/2000/svg"
   xmlns:sodipodi="http://sodipodi.sourceforge.net/DTD/sodipodi-0.dtd"
   xmlns:inkscape="http://www.inkscape.org/namespaces/inkscape"
   inkscape:version="1.0beta2 (2b71d25, 2019-12-03)"
   sodipodi:docname="gandi.svg"
   xml:space="preserve"
   id="logo"
   height="182.23151"
   width="112.93011"
   version="1.1"><metadata
   id="metadata839"><rdf:RDF><cc:Work
       rdf:about=""><dc:format>image/svg+xml</dc:format><dc:type
         rdf:resource="http://purl.org/dc/dcmitype/StillImage" /></cc:Work></rdf:RDF></metadata><defs
   id="defs837" /><sodipodi:namedview
   inkscape:current-layer="logo"
   inkscape:window-maximized="0"
   inkscape:window-y="0"
   inkscape:window-x="0"
   inkscape:cy="91.115752"
   inkscape:cx="-3.0801591"
   inkscape:zoom="1.3846154"
   showgrid="false"
   id="namedview835"
   inkscape:window-height="900"
   inkscape:window-width="1440"
   inkscape:pageshadow="2"
   inkscape:pageopacity="0"
   guidetolerance="10"
   gridtolerance="10"
   objecttolerance="10"
   borderopacity="1"
   inkscape:document-rotation="0"
   bordercolor="#666666"
   pagecolor="#ffffff" />

<path
   sodipodi:nodetypes="ccccccccccccccccccccccccccccccccccscscscscscscscscs"
   style="fill:#43a9a2;fill-opacity:1;fill-rule:nonzero;stroke:none"
   d="m 108.13264,42.153108 c -5.12134,-3.625617 -12.209914,-2.412498 -15.834034,2.707344 -4.44881,6.290483 -9.37451,10.953061 -14.979096,14.173389 -0.516731,0.296721 -1.041459,0.581323 -1.570435,0.855057 -0.487497,0.252743 -0.982364,0.494368 -1.48023,0.724748 -5.233034,2.42549 -11.061631,3.698704 -17.799257,3.900723 C 49.730838,64.31235 43.899366,63.038136 38.664335,60.612646 31.769916,57.417555 25.871729,52.265356 20.630201,44.860452 17.006583,39.74061 9.9175525,38.527491 4.7986365,42.153108 c -5.12088002,3.621869 -6.335097,10.710687 -2.710518,15.831528 7.487811,10.581382 16.5812255,18.401071 27.0269255,23.240308 2.051685,0.951256 4.144848,1.787197 6.290234,2.509446 -8.872393,6.406923 -18.465535,15.387002 -23.060761,27.69798 -4.7704725,12.77612 -4.7104415,26.60832 0.165926,38.95103 4.67867,11.84097 13.338797,21.47128 24.386809,27.11922 12.308483,6.29312 27.976597,6.30678 41.91036,0.0312 14.622784,-6.58154 24.160218,-18.63238 25.516008,-32.24207 1.42313,-14.32456 -5.444924,-27.07968 -17.500664,-32.49388 -12.486647,-5.60795 -26.572707,-1.60504 -35.883246,10.19447 -3.887106,4.92369 -3.044794,12.06748 1.8784,15.95309 4.925191,3.8876 12.067982,3.04429 15.95359,-1.8794 2.766687,-3.50543 5.955906,-4.79826 8.748456,-3.54404 2.380138,1.06933 4.731918,4.13411 4.19707,9.52393 -0.532973,5.3356 -5.220039,10.61699 -12.233396,13.77498 -7.589309,3.41334 -16.114757,3.58801 -22.248196,0.45339 -6.121821,-3.13063 -10.950939,-8.54295 -13.596939,-15.23909 -1.987343,-5.02627 -3.602254,-13.0421 -0.01121,-22.65723 2.692851,-7.21201 9.480827,-14.01711 21.363405,-21.410268 5.043756,-3.14049 10.453072,-6.06709 15.68273,-8.897246 6.031119,-3.26443 11.747274,-6.358448 16.767166,-9.672227 8.93336,-4.885588 16.790654,-12.074229 23.400974,-21.413632 3.62461,-5.12084 2.41087,-12.209659 -2.7091,-15.831528 z M 50.39112,20.769214 c 1.454369,-1.455494 3.389365,-2.257578 5.445422,-2.257578 2.058556,0 3.993551,0.802084 5.447421,2.256328 1.455244,1.456743 2.257077,3.38949 2.257077,5.447171 0,2.058931 -0.801833,3.992927 -2.256077,5.445922 -1.45487,1.456744 -3.389865,2.257577 -5.448421,2.257577 -2.056057,0 -3.991053,-0.800833 -5.445422,-2.255078 -1.454745,-1.455494 -2.256579,-3.38949 -2.256579,-5.448421 0,-2.057681 0.801834,-3.990428 2.256579,-5.445921 z m 5.445422,31.662306 c 7.002738,0 13.587693,-2.727333 18.538747,-7.679761 4.950054,-4.94993 7.677138,-11.531512 7.677138,-18.536624 0,-7.002613 -2.727084,-13.585444 -7.678638,-18.5378732 C 69.424235,2.7273338 62.83928,0 55.836542,0 48.835802,0 42.251847,2.7273338 37.300294,7.6797618 32.348741,12.629691 29.622156,19.212522 29.622156,26.215135 c 0,7.002614 2.726585,13.586694 7.678637,18.536624 4.950554,4.952428 11.535009,7.679761 18.535749,7.679761 z"
   id="gandi"
   inkscape:connector-curvature="0" />

</svg>
