<?xml version="1.0" encoding="UTF-8" standalone="no"?>
<svg
   xmlns:dc="http://purl.org/dc/elements/1.1/"
   xmlns:cc="http://creativecommons.org/ns#"
   xmlns:rdf="http://www.w3.org/1999/02/22-rdf-syntax-ns#"
   xmlns:svg="http://www.w3.org/2000/svg"
   xmlns="http://www.w3.org/2000/svg"
   xmlns:sodipodi="http://sodipodi.sourceforge.net/DTD/sodipodi-0.dtd"
   xmlns:inkscape="http://www.inkscape.org/namespaces/inkscape"
   width="63.079002"
   height="66.862"
   version="1.1"
   id="svg862"
   sodipodi:docname="letsencrypt.svg"
   inkscape:version="1.0beta2 (2b71d25, 2019-12-03)">
  <metadata
     id="metadata868">
    <rdf:RDF>
      <cc:Work
         rdf:about="">
        <dc:format>image/svg+xml</dc:format>
        <dc:type
           rdf:resource="http://purl.org/dc/dcmitype/StillImage" />
      </cc:Work>
    </rdf:RDF>
  </metadata>
  <defs
     id="defs866" />
  <sodipodi:namedview
     pagecolor="#ffffff"
     bordercolor="#666666"
     inkscape:document-rotation="0"
     borderopacity="1"
     objecttolerance="10"
     gridtolerance="10"
     guidetolerance="10"
     inkscape:pageopacity="0"
     inkscape:pageshadow="2"
     inkscape:window-width="1440"
     inkscape:window-height="874"
     id="namedview864"
     showgrid="false"
     inkscape:zoom="2.6548673"
     inkscape:cx="96.061667"
     inkscape:cy="38.894"
     inkscape:window-x="0"
     inkscape:window-y="26"
     inkscape:window-maximized="0"
     inkscape:current-layer="svg862" />
  <g
     transform="translate(-0.930001,-1.606)"
     id="g860">
    <title
       id="title833">Layer 1</title>
    <g
       id="svg_1">
      <g
         id="svg_2">
        <g
           id="svg_3" />
      </g>
    </g>
    <g
       id="svg_16">
      <path
         inkscape:connector-curvature="0"
         id="svg_17"
         d="m 46.488998,37.568001 h -8.039997 v -4.128002 c 0,-3.296997 -2.683002,-5.979 -5.98,-5.979 -3.297001,0 -5.979,2.683002 -5.979,5.979 v 4.128002 H 18.45 v -4.128002 c 0,-7.73 6.288998,-14.019999 14.02,-14.019999 7.731002,0 14.02,6.289 14.02,14.019999 v 4.128002 z"
         fill="#F9A11D" />
    </g>
    <path
       inkscape:connector-curvature="0"
       id="svg_18"
       d="M 49.731998,37.568001 H 15.207 c -1.474001,0 -2.68,1.205997 -2.68,2.68 v 25.540001 c 0,1.473999 1.205999,2.68 2.68,2.68 h 34.524998 c 1.474003,0 2.68,-1.206001 2.68,-2.68 V 40.248001 c 0,-1.474003 -1.205997,-2.68 -2.68,-2.68 z M 34.219001,54.337002 v 3.460995 c 0,0.966003 -0.784,1.749001 -1.749001,1.749001 -0.965001,0 -1.749001,-0.783997 -1.749001,-1.749001 v -3.459995 c -1.076,-0.611 -1.803001,-1.764 -1.803001,-3.09 0,-1.962002 1.591,-3.552002 3.552002,-3.552002 1.961998,0 3.551998,1.591 3.551998,3.552002 0,1.325001 -0.727001,2.478001 -1.802998,3.089001 z"
       fill="#2C3C69" />
    <path
       inkscape:connector-curvature="0"
       id="svg_19"
       d="m 11.707001,33.759998 h -8.331 c -1.351001,0 -2.446,-1.094997 -2.446,-2.445999 0,-1.351002 1.094999,-2.445999 2.446,-2.445999 h 8.331 c 1.351,0 2.445999,1.095001 2.445999,2.445999 0,1.350998 -1.096001,2.445999 -2.445999,2.445999 z"
       fill="#F9A11D" />
    <path
       inkscape:connector-curvature="0"
       id="svg_20"
       d="m 17.575001,20.655001 c -0.546001,0 -1.097,-0.182001 -1.552,-0.557001 l -6.59,-5.418999 C 8.39,13.820999 8.239001,12.280001 9.098,11.236 9.956,10.193001 11.497,10.042 12.541001,10.9 l 6.59,5.419001 c 1.042999,0.858 1.194,2.399 0.334999,3.442999 -0.483,0.589001 -1.184,0.893002 -1.890999,0.893002 z"
       fill="#F9A11D" />
    <path
       inkscape:connector-curvature="0"
       id="svg_21"
       d="m 32.469002,14.895 c -1.351002,0 -2.446003,-1.095001 -2.446003,-2.446001 V 4.052 c 0,-1.351 1.095001,-2.446 2.446003,-2.446 1.351002,0 2.445999,1.095 2.445999,2.446 v 8.396999 c 0,1.351 -1.095001,2.446001 -2.445999,2.446001 z"
       fill="#F9A11D" />
    <g
       id="svg_22">
      <g
         id="svg_23">
        <path
           inkscape:connector-curvature="0"
           id="svg_24"
           d="M 47.362999,20.655001 C 46.655998,20.655001 45.956001,20.351 45.472,19.761999 44.613998,18.719 44.764,17.177 45.806999,16.319 l 6.59,-5.419001 c 1.044003,-0.858 2.585003,-0.706999 3.442997,0.336 0.858002,1.042999 0.708,2.584999 -0.334999,3.443001 l -6.589996,5.418999 C 48.459999,20.472999 47.91,20.655 47.362999,20.655001 Z"
           fill="#F9A11D" />
      </g>
    </g>
    <path
       inkscape:connector-curvature="0"
       id="svg_25"
       d="M 61.563004,33.759998 H 53.153 c -1.351002,0 -2.445999,-1.094997 -2.445999,-2.445999 0,-1.351002 1.094997,-2.445999 2.445999,-2.445999 h 8.410004 c 1.350998,0 2.445999,1.095001 2.445999,2.445999 0,1.350998 -1.095001,2.445999 -2.445999,2.445999 z"
       fill="#F9A11D" />
  </g>
</svg>
